<?xml version="1.0" standalone="no"?><!DOCTYPE svg PUBLIC "-//W3C//DTD SVG 1.1//EN" "http://www.w3.org/Graphics/SVG/1.1/DTD/svg11.dtd"><svg t="1542613006206" class="icon" style="" viewBox="0 0 1024 1024" version="1.1" xmlns="http://www.w3.org/2000/svg" p-id="2856" xmlns:xlink="http://www.w3.org/1999/xlink" width="20" height="20"><defs><style type="text/css"></style></defs><path d="M1001.3184 531.6096l-138.1376-315.8016c-15.2576-34.9184-57.088-62.2592-95.1808-62.2592H256c-38.0928 0-79.9232 27.3408-95.1808 62.2592L22.6816 531.6096C9.984 560.6912 0 608.256 0 640v204.8c0 42.3424 34.4576 76.8 76.8 76.8h870.4c42.3424 0 76.8-34.4576 76.8-76.8v-204.8c0-31.6928-9.9328-79.3088-22.6816-108.3904z m-793.6-295.2192C214.9376 219.8528 237.9776 204.8 256 204.8h512c18.0224 0 41.0624 15.0528 48.2816 31.5904l138.1376 315.8016c1.536 3.5328 3.072 7.5776 4.5568 11.9296A74.5984 74.5984 0 0 0 947.2 563.2h-307.2a25.6 25.6 0 0 0-25.6 25.6v25.6c0 56.4736-45.9264 102.4-102.4 102.4s-102.4-45.9264-102.4-102.4v-25.6a25.6 25.6 0 0 0-25.6-25.6h-307.2c-3.9936 0-7.936 0.3072-11.776 0.9216 1.4848-4.352 2.9696-8.3968 4.5568-11.9296l138.1376-315.8016zM972.8 844.8a25.6 25.6 0 0 1-25.6 25.6h-870.4a25.6 25.6 0 0 1-25.6-25.6v-204.8a25.6 25.6 0 0 1 25.6-25.6H358.4c0 84.6848 68.9152 153.6 153.6 153.6s153.6-68.9152 153.6-153.6h281.6a25.6 25.6 0 0 1 25.6 25.6v204.8z" fill="#1296db" p-id="2857"></path></svg>