<?xml version="1.0" standalone="no"?><!DOCTYPE svg PUBLIC "-//W3C//DTD SVG 1.1//EN" "http://www.w3.org/Graphics/SVG/1.1/DTD/svg11.dtd"><svg t="1553864485273" class="icon" style="" viewBox="0 0 1024 1024" version="1.1" xmlns="http://www.w3.org/2000/svg" p-id="3439" xmlns:xlink="http://www.w3.org/1999/xlink" width="20" height="20"><defs><style type="text/css"></style></defs><path d="M228.181037 936.41021 488.649078 744.638362 512 727.446044 535.350922 744.638362 795.818965 936.41021 812.376974 988.21289 805.984902 992.802938 762.190056 960.558604 660.305723 641.807644 651.925339 615.589128 673.666462 598.70822 939.239877 392.50358 991.035936 391.978867 993.824327 399.984234 952.910592 431.751727 624.711715 435.076502 594.97422 435.377755 586.543781 406.858689 491.465318 85.220908 508.699609 26.919591 515.300391 26.919591 532.534682 85.220908 437.456219 406.858689 429.02578 435.377755 399.288284 435.076502 71.089406 431.751727 30.175674 399.984234 32.964063 391.978867 84.760122 392.50358 350.333539 598.70822 372.074661 615.589128 363.694276 641.807644 261.809942 960.558604 218.015098 992.802938 211.623027 988.21289 228.181037 936.41021 228.181037 936.41021ZM512 776.354009 207.737113 1000.370192 326.179457 629.816548 19.692308 391.844419 399.687244 395.693907 512 15.754808 624.312757 395.693907 1004.307692 391.844419 697.820542 629.816548 816.262888 1000.370192 512 776.354009 512 776.354009Z" p-id="3440" fill="#ffffff"></path></svg>