<?xml version="1.0" standalone="no"?><!DOCTYPE svg PUBLIC "-//W3C//DTD SVG 1.1//EN" "http://www.w3.org/Graphics/SVG/1.1/DTD/svg11.dtd"><svg t="1541641603585" class="icon" style="" viewBox="0 0 1024 1024" version="1.1" xmlns="http://www.w3.org/2000/svg" p-id="8117" xmlns:xlink="http://www.w3.org/1999/xlink" width="20" height="20"><defs><style type="text/css"></style></defs><path d="M899.072 805.888l-106.496-148.48v-215.04c0-128.512-83.968-237.056-201.728-274.432 2.048-4.608 2.048-8.704 2.048-13.312 0-48.64-39.936-88.576-88.576-88.576s-88.576 39.936-88.576 88.576c0 4.608 0 8.704 2.048 13.312-117.248 37.888-201.728 146.432-201.728 274.432v215.04l-106.496 148.48c-4.608 6.656-4.608 15.36-2.048 22.016 4.608 8.704 11.264 13.312 19.968 13.312h245.76c11.264 61.952 64 110.592 130.56 110.592s119.808-48.64 130.56-110.592h245.76c8.704 0 15.36-4.608 19.968-11.264 5.632-8.704 3.584-17.408-1.024-24.064z m-438.784-651.264c0-24.576 19.968-44.544 44.544-44.544s44.544 19.968 44.544 44.544v4.608c-15.36-2.048-28.672-4.608-44.544-4.608s-28.672 2.048-44.544 4.608v-4.608z m44.544 753.152c-41.984 0-75.264-28.672-86.528-66.56H588.8c-8.704 37.888-41.984 66.56-83.968 66.56z m-334.848-111.104l86.528-119.808c2.048-4.608 4.608-8.704 4.608-13.312v-221.696c0-135.168 108.544-243.712 243.712-243.712s243.712 108.544 243.712 243.712v221.696c0 4.608 2.048 8.704 4.608 13.312l86.528 119.808h-669.696z" fill="#8a8a8a" p-id="8118"></path></svg>