<?xml version="1.0" standalone="no"?><!DOCTYPE svg PUBLIC "-//W3C//DTD SVG 1.1//EN" "http://www.w3.org/Graphics/SVG/1.1/DTD/svg11.dtd"><svg t="1541581052317" class="icon" style="" viewBox="0 0 1025 1024" version="1.1" xmlns="http://www.w3.org/2000/svg" p-id="4948" xmlns:xlink="http://www.w3.org/1999/xlink" width="24.0234375" height="24"><defs><style type="text/css"></style></defs><path d="M126.989 259.017h781.421c14.413 0 26.073-11.659 26.073-26.038 0-14.395-11.66-26.055-26.073-26.055h-781.421c-14.378 0-26.038 11.659-26.038 26.055 0.001 14.379 11.66 26.038 26.038 26.038zM908.412 779.971h-781.421c-14.378 0-26.038 11.66-26.038 26.057 0 14.395 11.659 26.037 26.038 26.037h781.421c14.413 0 26.073-11.642 26.073-26.037 0.002-14.397-11.659-26.057-26.071-26.057zM908.412 493.448h-781.421c-14.378 0-26.038 11.641-26.038 26.054 0 14.38 11.659 26.039 26.038 26.039h781.421c14.413 0 26.073-11.659 26.073-26.039 0.002-14.413-11.659-26.054-26.071-26.054z" p-id="4949" fill="#ffffff"></path></svg>