<?xml version="1.0" standalone="no"?><!DOCTYPE svg PUBLIC "-//W3C//DTD SVG 1.1//EN" "http://www.w3.org/Graphics/SVG/1.1/DTD/svg11.dtd"><svg t="1541655263192" class="icon" style="" viewBox="0 0 1024 1024" version="1.1" xmlns="http://www.w3.org/2000/svg" p-id="9470" xmlns:xlink="http://www.w3.org/1999/xlink" width="25" height="25"><defs><style type="text/css"></style></defs><path d="M512 560.384c-47.84 0-86.752 38.944-86.752 86.752 0 19.008 6.048 37.056 17.504 52.256 0.256 0.256 0.512 0.64 0.736 0.928 21.44 24.928 23.008 42.816 23.072 44.384l0 49.632c0 25.056 20.384 45.376 45.44 45.376s45.408-20.32 45.408-45.376l0-50.496c0-0.576-0.032-1.12-0.096-1.696 0-0.064 0.128 0 0.128-0.064 0.16-1.12 0.512-3.552 1.696-7.136 2.304-7.072 7.808-18.688 20.704-33.76 0.16-0.192 0.384-0.448 0.576-0.736 12-15.328 18.368-33.76 18.368-53.312C598.784 599.328 559.84 560.384 512 560.384L512 560.384zM549.696 676.064c-30.336 35.552-31.808 61.12-31.52 68.192l0 50.048c0 3.328-2.784 6.112-6.144 6.112s-6.112-2.816-6.112-6.112l0-49.824c0-3.744-1.056-32.736-32.128-69.248-6.048-8.192-9.248-17.888-9.248-28.128 0-26.176 21.312-47.552 47.488-47.552s47.488 21.376 47.488 47.552C559.488 657.696 556.128 667.68 549.696 676.064L549.696 676.064zM841.568 393.984l-48.128 0L793.44 267.968c0-0.832-0.064-1.664-0.16-2.528-8.576-66.944-41.216-128.576-91.936-173.6-51.232-45.376-117.12-70.368-185.632-70.368-74.752 0-145.024 29.12-197.856 81.952C264.992 156.288 235.872 226.592 235.872 301.344l0 92.608-53.376 0.032c-36.96 0-67.008 30.016-67.008 66.976l0 474.56c0 36.864 30.016 67.008 67.008 67.008l409.152 0c0.576 0 1.152-0.064 1.728-0.064l246.4 0c0.544 0 1.12 0.064 1.792 0.064 36.864 0 66.944-30.112 66.944-67.008l0-474.56C908.512 424 878.432 393.984 841.568 393.984L841.568 393.984zM776.832 411.232M754.176 394.176C754.336 394.304 754.4 394.176 754.176 394.176L275.136 393.984 275.136 301.344c0-64.256 25.024-124.672 70.496-170.112 45.408-45.44 105.824-70.464 170.08-70.464 58.88 0 115.52 21.472 159.52 60.512 43.328 38.4 71.328 90.912 78.944 147.968l0 143.072c0 1.76 0.224 3.52 0.704 5.184l-24.608 6.848c2.304 8.544 35.072 8.928 43.84 8.928l67.392 0c15.296 0 27.68 12.416 27.68 27.712l0 474.56 0 0c0 14.56-11.328 26.624-25.632 27.616l-0.16 0-257.856 0c-0.576 0-1.152 0-1.792 0.064L182.496 963.232c-15.328 0-27.744-12.384-27.744-27.68l0-474.56c0-15.296 12.448-27.712 27.744-27.712l72.992-0.064c0.992 0 2.016-0.064 2.944-0.192 1.056 0.128 2.112 0.288 3.264 0.288l512.48 0c0.352 0 24.416 0-14.432 0M869.248 935.488" p-id="9471" fill="#1296db"></path></svg>