<?xml version="1.0" standalone="no"?><!DOCTYPE svg PUBLIC "-//W3C//DTD SVG 1.1//EN" "http://www.w3.org/Graphics/SVG/1.1/DTD/svg11.dtd"><svg t="1541655138819" class="icon" style="" viewBox="0 0 1024 1024" version="1.1" xmlns="http://www.w3.org/2000/svg" p-id="5706" xmlns:xlink="http://www.w3.org/1999/xlink" width="25" height="25"><defs><style type="text/css"></style></defs><path d="M1023.144829 512.123063a511.532833 511.532833 0 1 1-697.770133-476.119021 499.885624 499.885624 0 0 1 372.553297 0A511.375438 511.375438 0 0 1 1023.144829 512.123063z m-708.158184-107.815382a225.035098 225.035098 0 0 0 108.208868 197.136884 175.534459 175.534459 0 0 0 173.763769 1.573948 224.582588 224.582588 0 0 0 111.160019-198.710832c0-121.784163-88.141042-220.942835-196.546654-220.942835s-196.586003 99.158672-196.586002 220.942835z m198.710831 585.705094a475.430419 475.430419 0 0 0 369.877587-176.282084c-10.230657-84.993148-92.862883-157.197974-209.925205-193.202016a238.059511 238.059511 0 0 1-327.302316-2.951151c-113.83573 32.462661-197.195907 98.765185-216.752201 178.052774a475.764883 475.764883 0 0 0 384.102135 194.382477z" fill="#1296db" p-id="5707"></path></svg>