<?xml version="1.0" standalone="no"?><!DOCTYPE svg PUBLIC "-//W3C//DTD SVG 1.1//EN" "http://www.w3.org/Graphics/SVG/1.1/DTD/svg11.dtd"><svg t="1541655176781" class="icon" style="" viewBox="0 0 1024 1024" version="1.1" xmlns="http://www.w3.org/2000/svg" p-id="6642" xmlns:xlink="http://www.w3.org/1999/xlink" width="25" height="25"><defs><style type="text/css"></style></defs><path d="M882.635365 157.766187l-741.272777 0c-41.946344 0-76.072583 34.126238-76.072583 76.072583l0 556.321438c0 41.946344 34.126238 76.072583 76.072583 76.072583l741.272777 0c41.946344 0 76.073606-34.126238 76.073606-76.072583L958.708971 233.838769C958.708971 191.892425 924.582733 157.766187 882.635365 157.766187zM910.782426 790.160207c0 15.519462-12.626575 28.146037-28.146037 28.146037l-741.272777 0c-15.519462 0-28.145014-12.625552-28.145014-28.146037L113.218598 233.838769c0-15.519462 12.625552-28.146037 28.145014-28.146037l741.272777 0c15.519462 0 28.146037 12.625552 28.146037 28.146037L910.782426 790.160207z" p-id="6643" fill="#1296db"></path><path d="M832.608995 292.968471 510.351454 526.56881 179.408089 292.797579c-10.81123-7.636934-25.76378-5.063319-33.398668 5.746888-7.634888 10.809183-5.062296 25.76378 5.747911 33.398668L496.706689 575.608713c4.145413 2.928702 8.986675 4.391007 13.82589 4.391007 4.936429 0 9.870812-1.52268 14.06432-4.561899l336.14176-243.665579c10.715039-7.766894 13.104459-22.751167 5.337565-33.466206C858.30933 287.589974 843.326081 285.199531 832.608995 292.968471z" p-id="6644" fill="#1296db"></path></svg>