<?xml version="1.0" standalone="no"?><!DOCTYPE svg PUBLIC "-//W3C//DTD SVG 1.1//EN" "http://www.w3.org/Graphics/SVG/1.1/DTD/svg11.dtd"><svg t="1553864407675" class="icon" style="" viewBox="0 0 1024 1024" version="1.1" xmlns="http://www.w3.org/2000/svg" p-id="1742" xmlns:xlink="http://www.w3.org/1999/xlink" width="20" height="20"><defs><style type="text/css"></style></defs><path d="M478.077 481.478H93.487c-15.48 0-27.918 12.48-27.918 27.872 0 15.362 12.5 27.871 27.918 27.871h384.59v390.165c0 15.48 12.48 27.917 27.872 27.917 15.362 0 27.872-12.5 27.872-27.917V537.222h395.74c15.48 0 27.917-12.479 27.917-27.871 0-15.362-12.5-27.872-27.918-27.872H533.822V91.314c0-15.48-12.48-27.918-27.872-27.918-15.362 0-27.872 12.5-27.872 27.918v390.164z" p-id="1743" fill="#ffffff"></path></svg>