<?xml version="1.0" standalone="no"?><!DOCTYPE svg PUBLIC "-//W3C//DTD SVG 1.1//EN" "http://www.w3.org/Graphics/SVG/1.1/DTD/svg11.dtd"><svg t="1553850207345" class="icon" style="" viewBox="0 0 1024 1024" version="1.1" xmlns="http://www.w3.org/2000/svg" p-id="16840" xmlns:xlink="http://www.w3.org/1999/xlink" width="18" height="18"><defs><style type="text/css"></style></defs><path d="M921.6 307.2h-68.266667V17.066667a17.066667 17.066667 0 0 0-17.066666-17.066667h-477.866667a17.339733 17.339733 0 0 0-6.587733 1.3312c-0.989867 0.4096-1.7408 1.160533-2.628267 1.7408-0.955733 0.648533-2.048 1.092267-2.8672 1.911467l-170.666667 170.666666A17.2032 17.2032 0 0 0 170.666667 187.733333V307.2H103.1168A103.2192 103.2192 0 0 0 0 410.350933v305.698134A103.2192 103.2192 0 0 0 103.1168 819.2H170.666667v187.733333a17.066667 17.066667 0 0 0 17.066666 17.066667h648.533334a17.066667 17.066667 0 0 0 17.066666-17.066667V819.2h67.549867A103.2192 103.2192 0 0 0 1024 716.049067v-305.698134C1024 353.450667 978.056533 307.2 921.6 307.2zM341.333333 58.2656v112.5376l-113.527466 0.989867L341.333333 58.2656zM204.8 206.1312L358.536533 204.8A17.066667 17.066667 0 0 0 375.466667 187.733333V34.133333h443.733333v289.962667l-0.034133 0.170667 0.034133 0.170666V443.733333H204.8V206.1312zM819.2 989.866667H204.8v-170.666667h614.4v170.666667z m170.632533-273.8176A69.085867 69.085867 0 0 1 920.849067 785.066667H103.1168A69.085867 69.085867 0 0 1 34.133333 716.049067v-305.698134C34.133333 372.292267 65.092267 341.333333 103.1168 341.333333H170.666667v119.466667a17.066667 17.066667 0 0 0 17.066666 17.066667h648.533334a17.066667 17.066667 0 0 0 17.066666-17.066667V341.333333h68.232534c37.649067 0 68.266667 30.958933 68.266666 69.0176v305.698134z m-68.983466-333.141334a21.504 21.504 0 1 0 0 43.008 21.504 21.504 0 0 0 0-43.008z" fill="#ffffff" p-id="16841"></path></svg>