<?xml version="1.0" standalone="no"?><!DOCTYPE svg PUBLIC "-//W3C//DTD SVG 1.1//EN" "http://www.w3.org/Graphics/SVG/1.1/DTD/svg11.dtd"><svg t="1553850353832" class="icon" style="" viewBox="0 0 1024 1024" version="1.1" xmlns="http://www.w3.org/2000/svg" p-id="18437" xmlns:xlink="http://www.w3.org/1999/xlink" width="18" height="18"><defs><style type="text/css"></style></defs><path d="M525.4 877c-200.5 0-363.7-163.2-363.7-363.7 0-141.1 83-270.7 211.5-330l52.5-24.3-24.2 52.5c-19.7 42.7-29.7 87.9-29.7 134.3 0 177.1 144.1 321.1 321.1 321.1 46.4 0 91.6-10 134.3-29.7l52.5-24.3-24.3 52.5C796.1 794 666.6 877 525.4 877zM342.2 250C257 309.4 204.3 407.7 204.3 513.3c0 177.1 144.1 321.1 321.1 321.1 105.6 0 203.9-52.7 263.3-137.8-31.2 8.6-63.2 13-95.8 13-200.5 0-363.7-163.2-363.7-363.7 0-32.7 4.3-64.7 13-95.9z" fill="#ffffff" p-id="18438"></path></svg>